<?xml version="1.0" encoding="utf-8"?>
<!-- Generator: Adobe Illustrator 24.3.0, SVG Export Plug-In . SVG Version: 6.00 Build 0)  -->
<svg version="1.1" id="Layer_1" xmlns="http://www.w3.org/2000/svg" xmlns:xlink="http://www.w3.org/1999/xlink" x="0px" y="0px"
	 viewBox="0 0 200 200" style="enable-background:new 0 0 200 200;" xml:space="preserve">
<style type="text/css">
	.st0{fill:#8C1F7C;}
	.st1{fill:#FFFFFF;}
</style>
<path class="st0" d="M2.8,100c0,54,43.7,97.7,97.7,97.7c54,0,97.7-43.7,97.7-97.7c0,0,0,0,0,0c0-54-43.7-97.7-97.7-97.7
	C46.6,2.3,2.8,46,2.8,100C2.8,100,2.8,100,2.8,100z"/>
<path class="st1" d="M139.7,90.2h-29.3V60.9c0-5.4-4.4-9.8-9.8-9.8c-5.4,0-9.8,4.4-9.8,9.8c0,0,0,0,0,0v29.3H61.5
	c-5.4,0-9.8,4.4-9.8,9.8s4.4,9.8,9.8,9.8h29.4v29.3c0,5.4,4.4,9.8,9.8,9.8c5.4,0,9.8-4.4,9.8-9.8v-29.3h29.3c5.4,0,9.8-4.4,9.8-9.8
	c0-5.4-4.4-9.8-9.8-9.8L139.7,90.2z"/>
</svg>
