<?xml version="1.0" encoding="utf-8"?>
<!-- Generator: Adobe Illustrator 24.3.0, SVG Export Plug-In . SVG Version: 6.00 Build 0)  -->
<svg version="1.1" id="Layer_1" xmlns="http://www.w3.org/2000/svg" xmlns:xlink="http://www.w3.org/1999/xlink" x="0px" y="0px"
	 viewBox="0 0 200 200" style="enable-background:new 0 0 200 200;" xml:space="preserve">
<style type="text/css">
	.st0{fill:#8C1F7C;stroke:#8C1F7C;stroke-width:8;stroke-miterlimit:10;}
</style>
<path class="st0" d="M47.2,39.9h15.7h2.5v2.5v94.9c0,3.2,1.3,6.1,3.4,8.2c2.1,2.1,5,3.4,8.2,3.4h60h2.5v2.5v10.2
	c0,4.6-1.9,8.8-4.9,11.8c-3,3-7.2,4.9-11.8,4.9H47.2c-4.6,0-8.8-1.9-11.8-4.9c-3-3-4.9-7.2-4.9-11.8V56.6c0-4.6,1.9-8.8,4.9-11.8
	C38.4,41.8,42.6,39.9,47.2,39.9L47.2,39.9z M60.3,45H47.2c-3.2,0-6.1,1.3-8.2,3.4c-2.1,2.1-3.4,5-3.4,8.2v105.1
	c0,3.2,1.3,6.1,3.4,8.2c2.1,2.1,5,3.4,8.2,3.4h75.8c3.2,0,6.1-1.3,8.2-3.4c2.1-2.1,3.4-5,3.4-8.2v-7.6H77.1c-4.6,0-8.8-1.9-11.8-4.9
	c-3-3-4.9-7.2-4.9-11.8V45z"/>
<path class="st0" d="M77.1,15.5h75.8c4.6,0,8.8,1.9,11.8,4.9c3,3,4.9,7.2,4.9,11.8v105.1c0,4.6-1.9,8.8-4.9,11.8
	c-3,3-7.2,4.9-11.8,4.9H77.1c-4.6,0-8.8-1.9-11.8-4.9c-3-3-4.9-7.2-4.9-11.8V32.2c0-4.6,1.9-8.8,4.9-11.8
	C68.3,17.4,72.5,15.5,77.1,15.5L77.1,15.5z M152.8,20.6H77.1c-3.2,0-6.1,1.3-8.2,3.4c-2.1,2.1-3.4,5-3.4,8.2v105.1
	c0,3.2,1.3,6.1,3.4,8.2c2.1,2.1,5,3.4,8.2,3.4h75.8c3.2,0,6.1-1.3,8.2-3.4c2.1-2.1,3.4-5,3.4-8.2V32.2c0-3.2-1.3-6.1-3.4-8.2
	C158.9,21.9,156,20.6,152.8,20.6z"/>
</svg>
