<?xml version="1.0" encoding="utf-8"?>
<!-- Generator: Adobe Illustrator 24.3.0, SVG Export Plug-In . SVG Version: 6.00 Build 0)  -->
<svg version="1.1" id="Layer_1" xmlns="http://www.w3.org/2000/svg" xmlns:xlink="http://www.w3.org/1999/xlink" x="0px" y="0px"
	 viewBox="0 0 200 200" style="enable-background:new 0 0 200 200;" xml:space="preserve">
<style type="text/css">
	.st0{fill:#8C1F7C;}
</style>
<g>
	<g>
		<path class="st0" d="M124.1,180H75.5c-10.9,0-20.2-7.1-21.4-16.6L42.7,83c-0.2-1.3,0.3-2.6,1.3-3.6c1-1,2.4-1.5,3.9-1.5h103.8
			c1.5,0,2.9,0.6,3.9,1.5c1,1,1.5,2.3,1.3,3.6l-11.4,80.4C144.2,172.9,135,180,124.1,180z M53.8,87l10.6,75.3
			c0.7,4.9,5.4,8.6,11.1,8.6h48.6c5.6,0,10.4-3.7,11.1-8.6L145.8,87H53.8z"/>
	</g>
	<g>
		<path class="st0" d="M41.5,74.3c-0.9,0-1.8-0.2-2.6-0.6c-1.2-0.6-2.1-1.6-2.5-2.8l-1.3-4.2c-1.4-4.6-0.8-9.4,1.9-13.5
			c2.7-4.1,7.1-7.1,12.3-8.3l80.3-19.2l0,0c10.8-2.6,22.1,3,25,12.4l1.3,4.2c0.8,2.4-0.9,4.9-3.7,5.6L42.9,74.1
			C42.5,74.2,42,74.3,41.5,74.3z M132.5,34.6L52.2,53.8c-2.6,0.6-4.7,2.1-6,4.1c-1.3,1.9-1.6,4.2-1,6.3l99.4-23.7
			C143,36,137.7,33.4,132.5,34.6L132.5,34.6z"/>
	</g>
	<g>
		<path class="st0" d="M99.8,161.3c-2.2,0-3.9-1.5-3.9-3.4v-59c0-1.9,1.8-3.4,3.9-3.4c2.2,0,3.9,1.5,3.9,3.4v59
			C103.7,159.8,101.9,161.3,99.8,161.3z"/>
	</g>
	<g>
		<path class="st0" d="M78.3,161.3c-2,0-3.7-1.4-3.9-3.1l-5.4-59c-0.2-1.9,1.4-3.5,3.6-3.7c2.2-0.1,4,1.3,4.2,3.1l5.4,59
			c0.2,1.9-1.4,3.5-3.6,3.7C78.5,161.3,78.4,161.3,78.3,161.3z"/>
	</g>
	<g>
		<path class="st0" d="M121.2,161.3c-0.1,0-0.2,0-0.3,0c-2.2-0.1-3.8-1.8-3.6-3.7l5.4-59c0.2-1.9,2.1-3.3,4.2-3.1
			c2.2,0.1,3.8,1.8,3.6,3.7l-5.4,59C124.9,160,123.2,161.3,121.2,161.3z"/>
	</g>
	<g>
		<path class="st0" d="M74.1,48.4c-0.9,0-1.8-0.2-2.6-0.6c-1.2-0.6-2.1-1.6-2.5-2.8l-1.9-6.2C65,32.1,69.6,25,77.4,23.2l15.6-3.7
			c7.8-1.9,15.9,2.1,18,8.9l1.9,6.2c0.4,1.2,0.2,2.4-0.5,3.5c-0.7,1-1.8,1.8-3.2,2.1l-33.8,8.1C75,48.3,74.5,48.4,74.1,48.4z
			 M96.8,28.1c-0.4,0-0.7,0-1.1,0.1L80.1,32c-2.2,0.5-3.6,2.6-2.9,4.5l0.6,1.8l23.7-5.7l-0.6-1.8C100.3,29.2,98.6,28.1,96.8,28.1z"
			/>
	</g>
</g>
</svg>
