<?xml version="1.0" encoding="utf-8"?>
<!-- Generator: Adobe Illustrator 24.3.0, SVG Export Plug-In . SVG Version: 6.00 Build 0)  -->
<svg version="1.1" id="Layer_1" xmlns="http://www.w3.org/2000/svg" xmlns:xlink="http://www.w3.org/1999/xlink" x="0px" y="0px"
	 viewBox="0 0 200 200" style="enable-background:new 0 0 200 200;" xml:space="preserve">
<style type="text/css">
	.st0{fill:#FFFFFF;}
	.st1{fill:#F25A3C;}
	.st2{fill:#E43539;}
	.st3{fill:#E9F3FB;}
	.st4{fill:#D6E9F8;}
</style>
<path class="st0" d="M112,100l33.7-34.3c3.1-3.2,3.1-8.3,0-11.4c-3-3.1-8-3.2-11.1-0.1c0,0-0.1,0.1-0.1,0.1l-33.7,34.3L67.1,54.3
	c-3-3.1-8-3.2-11.1-0.1c0,0-0.1,0.1-0.1,0.1c-3.1,3.2-3.1,8.3,0,11.4L89.5,100l-33.7,34.3c-3.1,3.2-3.1,8.3,0,11.4
	c3,3.1,8,3.2,11.1,0.1c0,0,0.1-0.1,0.1-0.1l33.7-34.3l33.7,34.3c3,3.1,8,3.2,11.1,0.1c0,0,0.1-0.1,0.1-0.1c3.1-3.2,3.1-8.3,0-11.4
	L112,100z"/>
<g>
	<path class="st1" d="M183.3,65.4l-46.7-46.7c-0.9-0.9-2.2-1.5-3.5-1.5H66.9c-1.3,0-2.6,0.5-3.5,1.5L16.7,65.4
		c-0.9,0.9-1.5,2.2-1.5,3.5v66.1c0,1.3,0.5,2.6,1.5,3.5l46.7,46.7c0.9,0.9,2.2,1.5,3.5,1.5h66.1c1.3,0,2.6-0.5,3.5-1.5l46.7-46.7
		c0.9-0.9,1.5-2.2,1.5-3.5V68.9C184.8,67.6,184.2,66.4,183.3,65.4L183.3,65.4z"/>
	<path class="st2" d="M184.8,68.9v66.1c0,1.3-0.5,2.6-1.5,3.5l-46.7,46.7c-0.9,0.9-2.2,1.5-3.5,1.5H100V17.2h33.1
		c1.3,0,2.6,0.5,3.5,1.5l46.7,46.7C184.2,66.4,184.8,67.6,184.8,68.9z"/>
	<path class="st3" d="M93.8,52.3h12.5c2.9,0,5.2,2.5,5,5.3L107,114c-0.2,2.6-2.4,4.6-5,4.6h-4c-2.6,0-4.8-2-5-4.6l-4.2-56.3
		C88.6,54.8,90.9,52.3,93.8,52.3L93.8,52.3z"/>
	<path class="st4" d="M111.2,57.7L107,114c-0.2,2.6-2.4,4.6-5,4.6h-2V52.3h6.2C109.1,52.3,111.4,54.8,111.2,57.7L111.2,57.7z"/>
	<path class="st3" d="M90.1,141.7L90.1,141.7c0,5.5,4.4,10,9.9,10c5.5,0,9.9-4.4,9.9-9.9v0c0-5.5-4.4-9.9-9.9-9.9
		C94.5,131.8,90.1,136.2,90.1,141.7z"/>
	<path class="st4" d="M109.9,141.7L109.9,141.7c0,2.8-1.1,5.3-2.9,7s-4.3,2.9-7,2.9v-19.9C105.5,131.8,109.9,136.2,109.9,141.7
		L109.9,141.7z"/>
</g>
</svg>
