<?xml version="1.0" encoding="utf-8"?>
<!-- Generator: Adobe Illustrator 24.3.0, SVG Export Plug-In . SVG Version: 6.00 Build 0)  -->
<svg version="1.1" id="Layer_1" xmlns="http://www.w3.org/2000/svg" xmlns:xlink="http://www.w3.org/1999/xlink" x="0px" y="0px"
	 viewBox="0 0 200 200" style="enable-background:new 0 0 200 200;" xml:space="preserve">
<style type="text/css">
	.st0{fill:#8C1F7C;}
</style>
<g>
	<path class="st0" d="M99,15.5c-47.2,0-85.5,38.2-85.5,85.4c0,47.2,38.3,85.5,85.5,85.5c47.2,0,85.5-38.3,85.5-85.5
		C184.5,53.7,146.2,15.5,99,15.5z M105.1,148.4c-2,1.8-4.3,2.7-6.9,2.7c-2.7,0-5-0.9-7.1-2.6c-2-1.7-3-4.2-3-7.3c0-2.8,1-5.1,2.9-7
		s4.3-2.8,7.2-2.8c2.8,0,5.1,0.9,7,2.8c1.9,1.9,2.9,4.2,2.9,7C108.1,144.2,107.1,146.7,105.1,148.4z M129.8,87.1
		c-1.5,2.8-3.3,5.3-5.4,7.3c-2.1,2.1-5.9,5.5-11.3,10.4c-1.5,1.4-2.7,2.6-3.6,3.6c-0.9,1-1.6,2-2,2.9c-0.4,0.9-0.8,1.7-1,2.6
		c-0.2,0.9-0.6,2.4-1.1,4.5c-0.8,4.6-3.5,6.9-7.9,6.9c-2.3,0-4.2-0.7-5.8-2.3c-1.6-1.5-2.3-3.7-2.3-6.7c0-3.7,0.6-6.9,1.7-9.6
		c1.1-2.7,2.7-5.1,4.6-7.2c1.9-2.1,4.5-4.5,7.7-7.3c2.8-2.5,4.9-4.3,6.1-5.6c1.3-1.3,2.3-2.7,3.2-4.2c0.9-1.5,1.3-3.2,1.3-5
		c0-3.5-1.3-6.5-3.9-8.9c-2.6-2.4-6-3.6-10.2-3.6c-4.9,0-8.4,1.2-10.7,3.7s-4.2,6.1-5.8,10.8c-1.5,5-4.4,7.5-8.5,7.5
		c-2.5,0-4.6-0.9-6.3-2.6c-1.7-1.7-2.5-3.6-2.5-5.7c0-4.2,1.3-8.4,4-12.8c2.7-4.3,6.6-7.9,11.8-10.7c5.2-2.8,11.2-4.2,18.1-4.2
		c6.4,0,12.1,1.2,17,3.5c4.9,2.4,8.7,5.6,11.4,9.6c2.7,4.1,4,8.5,4,13.3C132.1,80.9,131.4,84.2,129.8,87.1z"/>
</g>
</svg>
