<?xml version="1.0" encoding="utf-8"?>
<!-- Generator: Adobe Illustrator 24.3.0, SVG Export Plug-In . SVG Version: 6.00 Build 0)  -->
<svg version="1.1" id="Layer_1" xmlns="http://www.w3.org/2000/svg" xmlns:xlink="http://www.w3.org/1999/xlink" x="0px" y="0px"
	 viewBox="0 0 200 200" style="enable-background:new 0 0 200 200;" xml:space="preserve">
<style type="text/css">
	.st0{fill:#8C1F7C;}
</style>
<g>
	<g>
		<path class="st0" d="M169.1,120.8h-27c-0.8,0-1.7,0.3-2.3,0.9l-31.1,31.1c-2.3,2.3-5.4,3.6-8.7,3.6c-3.3,0-6.4-1.3-8.7-3.6
			l-31.1-31.1c-0.6-0.6-1.4-0.9-2.3-0.9h-27c-1.8,0-3.2,1.4-3.2,3.2v50.9c0,1.8,1.4,3.2,3.2,3.2h138.2c1.8,0,3.2-1.4,3.2-3.2V124
			C172.3,122.3,170.8,120.8,169.1,120.8z"/>
		<path class="st0" d="M97.7,144.6c0.6,0.6,1.4,0.9,2.3,0.9s1.7-0.3,2.3-0.9l42.2-42.2c1.3-1.3,1.3-3.3,0-4.5l-10.6-10.6
			c-0.6-0.6-1.4-0.9-2.3-0.9c-0.8,0-1.7,0.3-2.3,0.9l-18,18V25.1c0-1.8-1.4-3.2-3.2-3.2H91.8c-1.8,0-3.2,1.4-3.2,3.2v80.2l-18-18
			c-1.3-1.3-3.3-1.3-4.5,0L55.5,97.8c-0.6,0.6-0.9,1.4-0.9,2.3s0.3,1.7,0.9,2.3L97.7,144.6z"/>
	</g>
</g>
</svg>
