<?xml version="1.0" encoding="utf-8"?>
<!-- Generator: Adobe Illustrator 24.3.0, SVG Export Plug-In . SVG Version: 6.00 Build 0)  -->
<svg version="1.1" id="Layer_1" xmlns="http://www.w3.org/2000/svg" xmlns:xlink="http://www.w3.org/1999/xlink" x="0px" y="0px"
	 viewBox="0 0 200 200" style="enable-background:new 0 0 200 200;" xml:space="preserve">
<style type="text/css">
	.st0{fill:#32BA7C;}
	.st1{fill:#0AA06E;}
	.st2{fill:#FFFFFF;}
</style>
<circle class="st0" cx="100" cy="100" r="84.8"/>
<path class="st1" d="M78.3,138.3l43.6,43.6c36.1-9.6,62.9-42.5,62.9-81.9c0-0.8,0-1.6,0-2.4L150.6,66L78.3,138.3z"/>
<g>
	<path class="st2" d="M102.1,119c3.7,3.7,3.7,10.2,0,13.9l-7.8,7.8c-3.7,3.7-10.2,3.7-13.9,0l-34-34.2c-3.7-3.7-3.7-10.2,0-13.9
		l7.8-7.8c3.7-3.7,10.2-3.7,13.9,0L102.1,119z"/>
	<path class="st2" d="M131.8,59.9c3.7-3.7,10.2-3.7,13.9,0l7.8,7.8c3.7,3.7,3.7,10.2,0,13.9l-58.9,58.6c-3.7,3.7-10.2,3.7-13.9,0
		l-7.8-7.8c-3.7-3.7-3.7-10.2,0-13.9L131.8,59.9z"/>
</g>
</svg>
