<?xml version="1.0" encoding="utf-8"?>
<!-- Generator: Adobe Illustrator 24.3.0, SVG Export Plug-In . SVG Version: 6.00 Build 0)  -->
<svg version="1.1" id="Layer_1" xmlns="http://www.w3.org/2000/svg" xmlns:xlink="http://www.w3.org/1999/xlink" x="0px" y="0px"
	 viewBox="0 0 200 200" style="enable-background:new 0 0 200 200;" xml:space="preserve">
<style type="text/css">
	.st0{fill:#FFFFFF;}
	.st1{fill:#8C1F7C;}
</style>
<path class="st0" d="M168.8,181.2H31.2c-6.9,0-12.5-5.6-12.5-12.5V31.2c0-6.9,5.6-12.5,12.5-12.5h137.5c6.9,0,12.5,5.6,12.5,12.5
	v137.5C181.2,175.6,175.6,181.2,168.8,181.2z"/>
<path class="st1" d="M168.8,187.5H31.2c-10.3,0-18.8-8.4-18.8-18.8V31.2c0-10.3,8.4-18.8,18.8-18.8h137.5c10.3,0,18.8,8.4,18.8,18.8
	v137.5C187.5,179.1,179.1,187.5,168.8,187.5z M31.2,25c-3.4,0-6.2,2.8-6.2,6.2v137.5c0,3.4,2.8,6.2,6.2,6.2h137.5
	c3.4,0,6.2-2.8,6.2-6.2V31.2c0-3.4-2.8-6.2-6.2-6.2H31.2z"/>
</svg>
