<?xml version="1.0" encoding="utf-8"?>
<!-- Generator: Adobe Illustrator 24.3.0, SVG Export Plug-In . SVG Version: 6.00 Build 0)  -->
<svg version="1.1" id="Layer_1" xmlns="http://www.w3.org/2000/svg" xmlns:xlink="http://www.w3.org/1999/xlink" x="0px" y="0px"
	 viewBox="0 0 200 200" style="enable-background:new 0 0 200 200;" xml:space="preserve">
<style type="text/css">
	.st0{fill:#FFFFFF;}
	.st1{fill:#F0C419;}
	.st2{fill:#35495E;}
	.st3{fill:#2C3E50;}
</style>
<path class="st0" d="M100,35c7.8,0,14.1,6.3,14.1,14.1c0,0.3,0,0.6,0,0.8l-3.5,60c-0.3,5.8-5.2,10.4-11.1,10.1
	c-5.5-0.2-9.9-4.6-10.1-10.1L85.9,50c-0.5-7.8,5.5-14.5,13.3-14.9C99.4,35,99.7,35,100,35z M100,165c8.3,0,15-6.7,15-15
	c0-8.3-6.7-15-15-15c-8.3,0-15,6.7-15,15C85,158.3,91.7,165,100,165L100,165z"/>
<path class="st1" d="M165.1,180.7H34.6c-9,0-17.3-4.6-22-12.3c-4.7-7.6-5.1-17.1-1.1-25.2L76.8,31.6c4.4-8.8,13.3-14.3,23.1-14.3
	s18.7,5.5,23.1,14.3l65.3,111.7c4,8,3.6,17.5-1.1,25.2C182.4,176.1,174.1,180.7,165.1,180.7z"/>
<path class="st2" d="M112.5,152.4c0,6.9-5.6,12.6-12.6,12.6c-6.9,0-12.6-5.6-12.6-12.6c0-6.9,5.6-12.6,12.6-12.6
	C106.8,139.9,112.5,145.5,112.5,152.4z"/>
<path class="st3" d="M112.5,152.4c0,3.3-1.3,6.5-3.7,8.9c-2.4,2.4-5.6,3.7-8.9,3.7v-25.1c3.3,0,6.5,1.3,8.9,3.7
	C111.1,145.9,112.5,149.1,112.5,152.4z"/>
<path class="st2" d="M99.9,42.4c6.9,0,12.6,5.6,12.6,12.6v59.7c0,6.9-5.6,12.6-12.6,12.6c-6.9,0-12.6-5.6-12.6-12.6V55
	C87.3,48.1,92.9,42.4,99.9,42.4z"/>
<path class="st3" d="M112.5,55v59.7c0,3.3-1.3,6.5-3.7,8.9c-2.4,2.4-5.6,3.7-8.9,3.7V42.4c3.3,0,6.5,1.3,8.9,3.7
	C111.1,48.5,112.5,51.7,112.5,55z"/>
</svg>
